<svg width="78" height="15" viewBox="0 0 78 15" fill="none" xmlns="http://www.w3.org/2000/svg">
<path d="M5.058 9.59C4.518 11.336 3.402 13.37 2.016 13.37C0.9 13.37 1.26 12.002 1.44 11.39H0.198C-0.252 12.848 0.072 14.36 1.71 14.36C3.762 14.36 5.184 12.434 6.012 9.986H7.326L6.102 14H7.362L8.586 9.986H9.9C9.252 12.434 9.612 14.36 11.502 14.36C13.518 14.36 14.418 12.848 14.868 11.39H13.608C13.428 12.002 12.924 13.37 11.808 13.37C10.422 13.37 10.566 11.336 11.106 9.59C11.628 7.844 12.744 5.81 14.13 5.81C15.246 5.81 14.886 7.178 14.706 7.79H15.966C16.416 6.332 16.092 4.82 14.436 4.82C12.6 4.82 11.052 6.656 10.206 8.996H8.892L10.044 5.18H8.784L7.632 8.996H6.282C6.84 6.656 6.3 4.82 4.644 4.82C2.628 4.82 1.728 6.332 1.278 7.79H2.538C2.718 7.178 3.222 5.81 4.338 5.81C5.724 5.81 5.58 7.844 5.058 9.59ZM17.5378 9.77H24.3778L24.5578 9.23C24.7378 8.672 24.8278 8.096 24.8278 7.592C24.8278 5.99 23.9278 4.82 21.9298 4.82C18.4018 4.82 16.0798 8.42 16.0798 11.3C16.0798 13.1 17.1238 14.36 19.0318 14.36C21.0478 14.36 22.7398 13.388 23.7658 11.21H22.5058C21.9658 12.362 20.8138 13.37 19.3378 13.37C17.9158 13.37 17.3038 12.452 17.3038 11.3C17.3038 10.814 17.3938 10.292 17.5378 9.77ZM23.3878 8.78H17.8978C18.5458 7.358 19.7518 5.81 21.6238 5.81C23.0998 5.81 23.5858 6.674 23.5858 7.628C23.5858 8.024 23.5138 8.42 23.3878 8.78ZM24.3844 14H25.7344L26.2924 12.2H24.9424L24.3844 14Z" fill="#FF4D26"/>
<path d="M28.2713 10.85C28.2713 13.208 30.2333 14.36 32.5193 14.36C35.3093 14.36 37.0013 13.118 37.0013 11.03C37.0013 7.736 29.7113 9.788 29.7113 7.79C29.7113 6.764 30.4673 5.9 32.5733 5.9C33.8693 5.9 35.2913 6.458 35.2913 7.79H36.5513C36.5513 5.432 34.2293 4.82 32.5733 4.82C30.2513 4.82 28.5413 5.882 28.5413 7.97C28.5413 11.264 35.8313 9.212 35.8313 11.21C35.8313 12.236 34.9853 13.28 32.5193 13.28C31.0433 13.28 29.5313 12.182 29.5313 10.85H28.2713ZM44.4345 10.85C44.0205 12.182 42.6885 13.37 41.0325 13.37C39.4845 13.37 38.9625 12.398 38.9625 11.102C38.9625 9.338 40.3305 5.81 43.3545 5.81C44.6685 5.81 45.3345 6.44 45.3345 7.538C45.3345 7.79 45.2985 8.06 45.2085 8.33H46.4685C46.5765 7.952 46.6125 7.664 46.6125 7.34C46.6125 5.774 45.4785 4.82 43.6605 4.82C40.3485 4.82 37.7205 7.988 37.7205 11.264C37.7205 13.064 38.8545 14.36 40.9065 14.36C42.9225 14.36 44.9745 13.208 45.6945 10.85H44.4345ZM54.7073 14H55.9673V8.42C55.9673 6.08 54.9773 4.82 52.7273 4.82C50.7473 4.82 49.5773 5.9 48.9473 7.07H48.7673L48.9473 5.9V0.499999H47.6873V14H48.9473V9.14C48.9473 6.908 50.7473 5.9 52.3673 5.9C53.8253 5.9 54.7073 6.62 54.7073 8.42V14ZM62.7325 4.82C59.3125 4.82 56.8645 8.186 56.8645 11.282C56.8645 13.082 57.8905 14.36 59.7985 14.36C63.1825 14.36 65.6845 11.03 65.6845 7.916C65.6845 6.116 64.6405 4.82 62.7325 4.82ZM62.4265 5.81C63.8845 5.81 64.4245 6.8 64.4245 7.988C64.4245 10.004 62.9305 13.37 60.1045 13.37C58.6465 13.37 58.1245 12.398 58.1245 11.21C58.1245 9.23 59.5645 5.81 62.4265 5.81ZM71.909 4.82C68.489 4.82 66.041 8.186 66.041 11.282C66.041 13.082 67.067 14.36 68.975 14.36C72.359 14.36 74.861 11.03 74.861 7.916C74.861 6.116 73.817 4.82 71.909 4.82ZM71.603 5.81C73.061 5.81 73.601 6.8 73.601 7.988C73.601 10.004 72.107 13.37 69.281 13.37C67.823 13.37 67.301 12.398 67.301 11.21C67.301 9.23 68.741 5.81 71.603 5.81ZM77.1975 0.499999H75.9375V14H77.1975V0.499999Z" fill="black"/>
</svg>
